<?xml version="1.0" encoding="UTF-8"?>
<svg xmlns="http://www.w3.org/2000/svg" viewBox="0 0 246 316" width="246" height="316" role="img" aria-label="Wing Browser Meters – horizontal layout demo">
<title>Wing Browser Meters – horizontal layout demo</title>
<defs><pattern id="segDimH" width="3" height="7" patternUnits="userSpaceOnUse"><rect width="2" height="7" fill="#16181e"/></pattern><pattern id="segGreenH" width="3" height="7" patternUnits="userSpaceOnUse"><rect width="2" height="7" fill="#1ED760"/></pattern><pattern id="segYellowH" width="3" height="7" patternUnits="userSpaceOnUse"><rect width="2" height="7" fill="#E7D600"/></pattern><pattern id="segRedH" width="3" height="7" patternUnits="userSpaceOnUse"><rect width="2" height="7" fill="#f44336"/></pattern><clipPath id="cH0"><rect x="0" y="0" width="0" height="7"><animate attributeName="width" calcMode="linear" dur="6s" begin="0s" repeatCount="indefinite" keyTimes="0;0.05;0.07;0.2;0.22;0.4;0.42;0.55;0.57;0.78;0.8;0.95;1" values="0;0;89;41;95;23;83;47;98;17;80;35;0"/></rect></clipPath><clipPath id="cH1"><rect x="0" y="0" width="0" height="7"><animate attributeName="width" calcMode="linear" dur="6s" begin="-1.37s" repeatCount="indefinite" keyTimes="0;0.05;0.07;0.2;0.22;0.4;0.42;0.55;0.57;0.78;0.8;0.95;1" values="0;0;89;41;95;23;83;47;98;17;80;35;0"/></rect></clipPath><clipPath id="cH2"><rect x="0" y="0" width="0" height="7"><animate attributeName="width" calcMode="linear" dur="6s" begin="-2.74s" repeatCount="indefinite" keyTimes="0;0.05;0.07;0.2;0.22;0.4;0.42;0.55;0.57;0.78;0.8;0.95;1" values="0;0;89;41;95;23;83;47;98;17;80;35;0"/></rect></clipPath><clipPath id="cH3"><rect x="0" y="0" width="0" height="7"><animate attributeName="width" calcMode="linear" dur="6s" begin="-4.11s" repeatCount="indefinite" keyTimes="0;0.05;0.07;0.2;0.22;0.4;0.42;0.55;0.57;0.78;0.8;0.95;1" values="0;0;89;41;95;23;83;47;98;17;80;35;0"/></rect></clipPath><clipPath id="cH4"><rect x="0" y="0" width="0" height="7"><animate attributeName="width" calcMode="linear" dur="6s" begin="-5.48s" repeatCount="indefinite" keyTimes="0;0.05;0.07;0.2;0.22;0.4;0.42;0.55;0.57;0.78;0.8;0.95;1" values="0;0;89;41;95;23;83;47;98;17;80;35;0"/></rect></clipPath><clipPath id="cH5L"><rect x="0" y="0" width="0" height="5"><animate attributeName="width" calcMode="linear" dur="6s" begin="-0.85s" repeatCount="indefinite" keyTimes="0;0.12;0.24;0.36;0.48;0.6;0.72;0.84;0.96;1" values="47;65;53;77;59;71;56;65;53;47"/></rect></clipPath><clipPath id="cH5R"><rect x="0" y="0" width="0" height="5"><animate attributeName="width" calcMode="linear" dur="6s" begin="-1.03s" repeatCount="indefinite" keyTimes="0;0.12;0.24;0.36;0.48;0.6;0.72;0.84;0.96;1" values="47;65;53;77;59;71;56;65;53;47"/></rect></clipPath><clipPath id="cH6L"><rect x="0" y="0" width="0" height="5"><animate attributeName="width" calcMode="linear" dur="6s" begin="-2.22s" repeatCount="indefinite" keyTimes="0;0.12;0.24;0.36;0.48;0.6;0.72;0.84;0.96;1" values="47;65;53;77;59;71;56;65;53;47"/></rect></clipPath><clipPath id="cH6R"><rect x="0" y="0" width="0" height="5"><animate attributeName="width" calcMode="linear" dur="6s" begin="-2.40s" repeatCount="indefinite" keyTimes="0;0.12;0.24;0.36;0.48;0.6;0.72;0.84;0.96;1" values="47;65;53;77;59;71;56;65;53;47"/></rect></clipPath><clipPath id="cH7L"><rect x="0" y="0" width="0" height="5"><animate attributeName="width" calcMode="linear" dur="6s" begin="-3.59s" repeatCount="indefinite" keyTimes="0;0.12;0.24;0.36;0.48;0.6;0.72;0.84;0.96;1" values="47;65;53;77;59;71;56;65;53;47"/></rect></clipPath><clipPath id="cH7R"><rect x="0" y="0" width="0" height="5"><animate attributeName="width" calcMode="linear" dur="6s" begin="-3.77s" repeatCount="indefinite" keyTimes="0;0.12;0.24;0.36;0.48;0.6;0.72;0.84;0.96;1" values="47;65;53;77;59;71;56;65;53;47"/></rect></clipPath><clipPath id="cH8L"><rect x="0" y="0" width="0" height="5"><animate attributeName="width" calcMode="linear" dur="6s" begin="-4.96s" repeatCount="indefinite" keyTimes="0;0.12;0.24;0.36;0.48;0.6;0.72;0.84;0.96;1" values="47;65;53;77;59;71;56;65;53;47"/></rect></clipPath><clipPath id="cH8R"><rect x="0" y="0" width="0" height="5"><animate attributeName="width" calcMode="linear" dur="6s" begin="-5.14s" repeatCount="indefinite" keyTimes="0;0.12;0.24;0.36;0.48;0.6;0.72;0.84;0.96;1" values="47;65;53;77;59;71;56;65;53;47"/></rect></clipPath><clipPath id="cH9L"><rect x="0" y="0" width="0" height="5"><animate attributeName="width" calcMode="linear" dur="6s" begin="-0.33s" repeatCount="indefinite" keyTimes="0;0.12;0.24;0.36;0.48;0.6;0.72;0.84;0.96;1" values="47;65;53;77;59;71;56;65;53;47"/></rect></clipPath><clipPath id="cH9R"><rect x="0" y="0" width="0" height="5"><animate attributeName="width" calcMode="linear" dur="6s" begin="-0.51s" repeatCount="indefinite" keyTimes="0;0.12;0.24;0.36;0.48;0.6;0.72;0.84;0.96;1" values="47;65;53;77;59;71;56;65;53;47"/></rect></clipPath><clipPath id="cH10L"><rect x="0" y="0" width="0" height="5"><animate attributeName="width" calcMode="linear" dur="6s" begin="-1.70s" repeatCount="indefinite" keyTimes="0;0.15;0.3;0.45;0.6;0.75;0.9;1" values="77;89;83;95;83;92;80;77"/></rect></clipPath><clipPath id="cH10R"><rect x="0" y="0" width="0" height="5"><animate attributeName="width" calcMode="linear" dur="6s" begin="-1.88s" repeatCount="indefinite" keyTimes="0;0.15;0.3;0.45;0.6;0.75;0.9;1" values="77;89;83;95;83;92;80;77"/></rect></clipPath><clipPath id="cH11L"><rect x="0" y="0" width="0" height="5"><animate attributeName="width" calcMode="linear" dur="6s" begin="-3.07s" repeatCount="indefinite" keyTimes="0;0.1;0.2;0.3;0.4;0.5;0.6;0.7;0.8;0.9;1" values="65;77;71;83;74;68;80;74;65;77;65"/></rect></clipPath><clipPath id="cH11R"><rect x="0" y="0" width="0" height="5"><animate attributeName="width" calcMode="linear" dur="6s" begin="-3.25s" repeatCount="indefinite" keyTimes="0;0.1;0.2;0.3;0.4;0.5;0.6;0.7;0.8;0.9;1" values="65;77;71;83;74;68;80;74;65;77;65"/></rect></clipPath><clipPath id="cH12"><rect x="0" y="0" width="0" height="7"><animate attributeName="width" calcMode="linear" dur="6s" begin="-4.44s" repeatCount="indefinite" keyTimes="0;0.05;0.07;0.2;0.22;0.4;0.42;0.55;0.57;0.78;0.8;0.95;1" values="0;0;89;41;95;23;83;47;98;17;80;35;0"/></rect></clipPath><clipPath id="cH13"><rect x="0" y="0" width="0" height="7"><animate attributeName="width" calcMode="linear" dur="6s" begin="-5.81s" repeatCount="indefinite" keyTimes="0;0.3;0.32;0.45;0.7;0.72;0.85;1" values="23;23;53;35;35;65;41;23"/></rect></clipPath><clipPath id="cH14L"><rect x="0" y="0" width="0" height="5"><animate attributeName="width" calcMode="linear" dur="6s" begin="-1.18s" repeatCount="indefinite" keyTimes="0;0.08;0.18;0.22;0.32;0.42;0.5;0.58;0.68;0.75;0.85;0.92;1" values="65;89;77;95;80;98;83;92;77;98;83;92;65"/></rect></clipPath><clipPath id="cH14R"><rect x="0" y="0" width="0" height="5"><animate attributeName="width" calcMode="linear" dur="6s" begin="-1.36s" repeatCount="indefinite" keyTimes="0;0.08;0.18;0.22;0.32;0.42;0.5;0.58;0.68;0.75;0.85;0.92;1" values="65;89;77;95;80;98;83;92;77;98;83;92;65"/></rect></clipPath><clipPath id="cH15L"><rect x="0" y="0" width="0" height="5"><animate attributeName="width" calcMode="linear" dur="6s" begin="-2.55s" repeatCount="indefinite" keyTimes="0;0.08;0.18;0.22;0.32;0.42;0.5;0.58;0.68;0.75;0.85;0.92;1" values="65;89;77;95;80;98;83;92;77;98;83;92;65"/></rect></clipPath><clipPath id="cH15R"><rect x="0" y="0" width="0" height="5"><animate attributeName="width" calcMode="linear" dur="6s" begin="-2.73s" repeatCount="indefinite" keyTimes="0;0.08;0.18;0.22;0.32;0.42;0.5;0.58;0.68;0.75;0.85;0.92;1" values="65;89;77;95;80;98;83;92;77;98;83;92;65"/></rect></clipPath><clipPath id="cH16L"><rect x="0" y="0" width="0" height="5"><animate attributeName="width" calcMode="linear" dur="6s" begin="-3.92s" repeatCount="indefinite" keyTimes="0;0.1;0.2;0.3;0.4;0.5;0.6;0.7;0.8;0.9;1" values="71;89;77;95;80;92;77;98;83;89;71"/></rect></clipPath><clipPath id="cH16R"><rect x="0" y="0" width="0" height="5"><animate attributeName="width" calcMode="linear" dur="6s" begin="-4.10s" repeatCount="indefinite" keyTimes="0;0.1;0.2;0.3;0.4;0.5;0.6;0.7;0.8;0.9;1" values="71;89;77;95;80;92;77;98;83;89;71"/></rect></clipPath><clipPath id="cH17L"><rect x="0" y="0" width="0" height="5"><animate attributeName="width" calcMode="linear" dur="6s" begin="-5.29s" repeatCount="indefinite" keyTimes="0;0.15;0.3;0.45;0.6;0.75;0.9;1" values="77;89;83;95;83;92;80;77"/></rect></clipPath><clipPath id="cH17R"><rect x="0" y="0" width="0" height="5"><animate attributeName="width" calcMode="linear" dur="6s" begin="-5.47s" repeatCount="indefinite" keyTimes="0;0.15;0.3;0.45;0.6;0.75;0.9;1" values="77;89;83;95;83;92;80;77"/></rect></clipPath></defs>
<rect width="246" height="316" fill="#272A33"/>
<rect x="16" y="16" width="23" height="12" rx="1.5" fill="#E02040"/><text x="27.5" y="22" font-family="Arial, sans-serif" font-size="10.5" font-weight="400" fill="#FFFFFF" text-anchor="middle" dominant-baseline="central">1</text><rect x="40" y="16" width="76" height="12" rx="1.5" fill="#E02040"/><text x="43" y="22" font-family="Arial, sans-serif" font-size="10.5" font-weight="400" fill="#FFFFFF" text-anchor="start" dominant-baseline="central">MIC VETLE</text><g transform="translate(120 18.5)"><rect width="110" height="7" fill="url(#segDimH)"/><g clip-path="url(#cH0)"><rect width="77" height="7" fill="url(#segGreenH)"/><rect x="78" width="20" height="7" fill="url(#segYellowH)"/><rect x="99" width="11" height="7" fill="url(#segRedH)"/></g></g><rect x="16" y="32" width="23" height="12" rx="1.5" fill="#E02040"/><text x="27.5" y="38" font-family="Arial, sans-serif" font-size="10.5" font-weight="400" fill="#FFFFFF" text-anchor="middle" dominant-baseline="central">2</text><rect x="40" y="32" width="76" height="12" rx="1.5" fill="#E02040"/><text x="43" y="38" font-family="Arial, sans-serif" font-size="10.5" font-weight="400" fill="#FFFFFF" text-anchor="start" dominant-baseline="central">MIC LARS</text><g transform="translate(120 34.5)"><rect width="110" height="7" fill="url(#segDimH)"/><g clip-path="url(#cH1)"><rect width="77" height="7" fill="url(#segGreenH)"/><rect x="78" width="20" height="7" fill="url(#segYellowH)"/><rect x="99" width="11" height="7" fill="url(#segRedH)"/></g></g><rect x="16" y="48" width="23" height="12" rx="1.5" fill="#E02040"/><text x="27.5" y="54" font-family="Arial, sans-serif" font-size="10.5" font-weight="400" fill="#FFFFFF" text-anchor="middle" dominant-baseline="central">3</text><rect x="40" y="48" width="76" height="12" rx="1.5" fill="#E02040"/><text x="43" y="54" font-family="Arial, sans-serif" font-size="10.5" font-weight="400" fill="#FFFFFF" text-anchor="start" dominant-baseline="central">MIC JOHS</text><g transform="translate(120 50.5)"><rect width="110" height="7" fill="url(#segDimH)"/><g clip-path="url(#cH2)"><rect width="77" height="7" fill="url(#segGreenH)"/><rect x="78" width="20" height="7" fill="url(#segYellowH)"/><rect x="99" width="11" height="7" fill="url(#segRedH)"/></g></g><rect x="16" y="64" width="23" height="12" rx="1.5" fill="#E02040"/><text x="27.5" y="70" font-family="Arial, sans-serif" font-size="10.5" font-weight="400" fill="#FFFFFF" text-anchor="middle" dominant-baseline="central">4</text><rect x="40" y="64" width="76" height="12" rx="1.5" fill="#E02040"/><text x="43" y="70" font-family="Arial, sans-serif" font-size="10.5" font-weight="400" fill="#FFFFFF" text-anchor="start" dominant-baseline="central">MIC JOAKIM</text><g transform="translate(120 66.5)"><rect width="110" height="7" fill="url(#segDimH)"/><g clip-path="url(#cH3)"><rect width="77" height="7" fill="url(#segGreenH)"/><rect x="78" width="20" height="7" fill="url(#segYellowH)"/><rect x="99" width="11" height="7" fill="url(#segRedH)"/></g></g><rect x="16" y="80" width="23" height="12" rx="1.5" fill="#E02040"/><text x="27.5" y="86" font-family="Arial, sans-serif" font-size="10.5" font-weight="400" fill="#FFFFFF" text-anchor="middle" dominant-baseline="central">5</text><rect x="40" y="80" width="76" height="12" rx="1.5" fill="#E02040"/><text x="43" y="86" font-family="Arial, sans-serif" font-size="10.5" font-weight="400" fill="#FFFFFF" text-anchor="start" dominant-baseline="central">MIC HARALD</text><g transform="translate(120 82.5)"><rect width="110" height="7" fill="url(#segDimH)"/><g clip-path="url(#cH4)"><rect width="77" height="7" fill="url(#segGreenH)"/><rect x="78" width="20" height="7" fill="url(#segYellowH)"/><rect x="99" width="11" height="7" fill="url(#segRedH)"/></g></g><rect x="16" y="96" width="23" height="12" rx="1.5" fill="#25C3FF"/><text x="27.5" y="102" font-family="Arial, sans-serif" font-size="10.5" font-weight="400" fill="#000000" text-anchor="middle" dominant-baseline="central">6</text><rect x="40" y="96" width="76" height="12" rx="1.5" fill="#25C3FF"/><text x="43" y="102" font-family="Arial, sans-serif" font-size="10.5" font-weight="400" fill="#000000" text-anchor="start" dominant-baseline="central">PC VETLE</text><g transform="translate(120 96.5)"><rect width="110" height="5" fill="url(#segDimH)"/><g clip-path="url(#cH5L)"><rect width="77" height="5" fill="url(#segGreenH)"/><rect x="78" width="20" height="5" fill="url(#segYellowH)"/><rect x="99" width="11" height="5" fill="url(#segRedH)"/></g></g><g transform="translate(120 102.5)"><rect width="110" height="5" fill="url(#segDimH)"/><g clip-path="url(#cH5R)"><rect width="77" height="5" fill="url(#segGreenH)"/><rect x="78" width="20" height="5" fill="url(#segYellowH)"/><rect x="99" width="11" height="5" fill="url(#segRedH)"/></g></g><rect x="16" y="112" width="23" height="12" rx="1.5" fill="#25C3FF"/><text x="27.5" y="118" font-family="Arial, sans-serif" font-size="10.5" font-weight="400" fill="#000000" text-anchor="middle" dominant-baseline="central">7</text><rect x="40" y="112" width="76" height="12" rx="1.5" fill="#25C3FF"/><text x="43" y="118" font-family="Arial, sans-serif" font-size="10.5" font-weight="400" fill="#000000" text-anchor="start" dominant-baseline="central">PC LARS</text><g transform="translate(120 112.5)"><rect width="110" height="5" fill="url(#segDimH)"/><g clip-path="url(#cH6L)"><rect width="77" height="5" fill="url(#segGreenH)"/><rect x="78" width="20" height="5" fill="url(#segYellowH)"/><rect x="99" width="11" height="5" fill="url(#segRedH)"/></g></g><g transform="translate(120 118.5)"><rect width="110" height="5" fill="url(#segDimH)"/><g clip-path="url(#cH6R)"><rect width="77" height="5" fill="url(#segGreenH)"/><rect x="78" width="20" height="5" fill="url(#segYellowH)"/><rect x="99" width="11" height="5" fill="url(#segRedH)"/></g></g><rect x="16" y="128" width="23" height="12" rx="1.5" fill="#25C3FF"/><text x="27.5" y="134" font-family="Arial, sans-serif" font-size="10.5" font-weight="400" fill="#000000" text-anchor="middle" dominant-baseline="central">8</text><rect x="40" y="128" width="76" height="12" rx="1.5" fill="#25C3FF"/><text x="43" y="134" font-family="Arial, sans-serif" font-size="10.5" font-weight="400" fill="#000000" text-anchor="start" dominant-baseline="central">PC JOHS</text><g transform="translate(120 128.5)"><rect width="110" height="5" fill="url(#segDimH)"/><g clip-path="url(#cH7L)"><rect width="77" height="5" fill="url(#segGreenH)"/><rect x="78" width="20" height="5" fill="url(#segYellowH)"/><rect x="99" width="11" height="5" fill="url(#segRedH)"/></g></g><g transform="translate(120 134.5)"><rect width="110" height="5" fill="url(#segDimH)"/><g clip-path="url(#cH7R)"><rect width="77" height="5" fill="url(#segGreenH)"/><rect x="78" width="20" height="5" fill="url(#segYellowH)"/><rect x="99" width="11" height="5" fill="url(#segRedH)"/></g></g><rect x="16" y="144" width="23" height="12" rx="1.5" fill="#25C3FF"/><text x="27.5" y="150" font-family="Arial, sans-serif" font-size="10.5" font-weight="400" fill="#000000" text-anchor="middle" dominant-baseline="central">9</text><rect x="40" y="144" width="76" height="12" rx="1.5" fill="#25C3FF"/><text x="43" y="150" font-family="Arial, sans-serif" font-size="10.5" font-weight="400" fill="#000000" text-anchor="start" dominant-baseline="central">PC JOAKIM</text><g transform="translate(120 144.5)"><rect width="110" height="5" fill="url(#segDimH)"/><g clip-path="url(#cH8L)"><rect width="77" height="5" fill="url(#segGreenH)"/><rect x="78" width="20" height="5" fill="url(#segYellowH)"/><rect x="99" width="11" height="5" fill="url(#segRedH)"/></g></g><g transform="translate(120 150.5)"><rect width="110" height="5" fill="url(#segDimH)"/><g clip-path="url(#cH8R)"><rect width="77" height="5" fill="url(#segGreenH)"/><rect x="78" width="20" height="5" fill="url(#segYellowH)"/><rect x="99" width="11" height="5" fill="url(#segRedH)"/></g></g><rect x="16" y="160" width="23" height="12" rx="1.5" fill="#25C3FF"/><text x="27.5" y="166" font-family="Arial, sans-serif" font-size="10.5" font-weight="400" fill="#000000" text-anchor="middle" dominant-baseline="central">10</text><rect x="40" y="160" width="76" height="12" rx="1.5" fill="#25C3FF"/><text x="43" y="166" font-family="Arial, sans-serif" font-size="10.5" font-weight="400" fill="#000000" text-anchor="start" dominant-baseline="central">PC HARALD</text><g transform="translate(120 160.5)"><rect width="110" height="5" fill="url(#segDimH)"/><g clip-path="url(#cH9L)"><rect width="77" height="5" fill="url(#segGreenH)"/><rect x="78" width="20" height="5" fill="url(#segYellowH)"/><rect x="99" width="11" height="5" fill="url(#segRedH)"/></g></g><g transform="translate(120 166.5)"><rect width="110" height="5" fill="url(#segDimH)"/><g clip-path="url(#cH9R)"><rect width="77" height="5" fill="url(#segGreenH)"/><rect x="78" width="20" height="5" fill="url(#segYellowH)"/><rect x="99" width="11" height="5" fill="url(#segRedH)"/></g></g><rect x="16" y="176" width="23" height="12" rx="1.5" fill="#96CC00"/><text x="27.5" y="182" font-family="Arial, sans-serif" font-size="10.5" font-weight="400" fill="#000000" text-anchor="middle" dominant-baseline="central">29</text><rect x="40" y="176" width="76" height="12" rx="1.5" fill="#96CC00"/><text x="43" y="182" font-family="Arial, sans-serif" font-size="10.5" font-weight="400" fill="#000000" text-anchor="start" dominant-baseline="central">SPOTIFY CAS</text><g transform="translate(120 176.5)"><rect width="110" height="5" fill="url(#segDimH)"/><g clip-path="url(#cH10L)"><rect width="77" height="5" fill="url(#segGreenH)"/><rect x="78" width="20" height="5" fill="url(#segYellowH)"/><rect x="99" width="11" height="5" fill="url(#segRedH)"/></g></g><g transform="translate(120 182.5)"><rect width="110" height="5" fill="url(#segDimH)"/><g clip-path="url(#cH10R)"><rect width="77" height="5" fill="url(#segGreenH)"/><rect x="78" width="20" height="5" fill="url(#segYellowH)"/><rect x="99" width="11" height="5" fill="url(#segRedH)"/></g></g><rect x="16" y="192" width="23" height="12" rx="1.5" fill="#96CC00"/><text x="27.5" y="198" font-family="Arial, sans-serif" font-size="10.5" font-weight="400" fill="#000000" text-anchor="middle" dominant-baseline="central">30</text><rect x="40" y="192" width="76" height="12" rx="1.5" fill="#96CC00"/><text x="43" y="198" font-family="Arial, sans-serif" font-size="10.5" font-weight="400" fill="#000000" text-anchor="start" dominant-baseline="central">SPOTIFY DEL</text><g transform="translate(120 192.5)"><rect width="110" height="5" fill="url(#segDimH)"/><g clip-path="url(#cH11L)"><rect width="77" height="5" fill="url(#segGreenH)"/><rect x="78" width="20" height="5" fill="url(#segYellowH)"/><rect x="99" width="11" height="5" fill="url(#segRedH)"/></g></g><g transform="translate(120 198.5)"><rect width="110" height="5" fill="url(#segDimH)"/><g clip-path="url(#cH11R)"><rect width="77" height="5" fill="url(#segGreenH)"/><rect x="78" width="20" height="5" fill="url(#segYellowH)"/><rect x="99" width="11" height="5" fill="url(#segRedH)"/></g></g><rect x="16" y="208" width="23" height="12" rx="1.5" fill="#33E6A5"/><text x="27.5" y="214" font-family="Arial, sans-serif" font-size="10.5" font-weight="400" fill="#000000" text-anchor="middle" dominant-baseline="central">31</text><rect x="40" y="208" width="76" height="12" rx="1.5" fill="#33E6A5"/><text x="43" y="214" font-family="Arial, sans-serif" font-size="10.5" font-weight="400" fill="#000000" text-anchor="start" dominant-baseline="central">DISCORD</text><g transform="translate(120 210.5)"><rect width="110" height="7" fill="url(#segDimH)"/><g clip-path="url(#cH12)"><rect width="77" height="7" fill="url(#segGreenH)"/><rect x="78" width="20" height="7" fill="url(#segYellowH)"/><rect x="99" width="11" height="7" fill="url(#segRedH)"/></g></g><rect x="16" y="224" width="23" height="12" rx="1.5" fill="#A533FF"/><text x="27.5" y="230" font-family="Arial, sans-serif" font-size="10.5" font-weight="400" fill="#FFFFFF" text-anchor="middle" dominant-baseline="central">32</text><rect x="40" y="224" width="76" height="12" rx="1.5" fill="#A533FF"/><text x="43" y="230" font-family="Arial, sans-serif" font-size="10.5" font-weight="400" fill="#FFFFFF" text-anchor="start" dominant-baseline="central">CASPAR CG</text><g transform="translate(120 226.5)"><rect width="110" height="7" fill="url(#segDimH)"/><g clip-path="url(#cH13)"><rect width="77" height="7" fill="url(#segGreenH)"/><rect x="78" width="20" height="7" fill="url(#segYellowH)"/><rect x="99" width="11" height="7" fill="url(#segRedH)"/></g></g><rect x="16" y="240" width="23" height="12" rx="1.5" fill="#3E63CC"/><text x="27.5" y="246" font-family="Arial, sans-serif" font-size="10.5" font-weight="400" fill="#FFFFFF" text-anchor="middle" dominant-baseline="central">M1</text><rect x="40" y="240" width="76" height="12" rx="1.5" fill="#3E63CC"/><text x="43" y="246" font-family="Arial, sans-serif" font-size="10.5" font-weight="400" fill="#FFFFFF" text-anchor="start" dominant-baseline="central">MAIN 1</text><g transform="translate(120 240.5)"><rect width="110" height="5" fill="url(#segDimH)"/><g clip-path="url(#cH14L)"><rect width="77" height="5" fill="url(#segGreenH)"/><rect x="78" width="20" height="5" fill="url(#segYellowH)"/><rect x="99" width="11" height="5" fill="url(#segRedH)"/></g></g><g transform="translate(120 246.5)"><rect width="110" height="5" fill="url(#segDimH)"/><g clip-path="url(#cH14R)"><rect width="77" height="5" fill="url(#segGreenH)"/><rect x="78" width="20" height="5" fill="url(#segYellowH)"/><rect x="99" width="11" height="5" fill="url(#segRedH)"/></g></g><rect x="16" y="256" width="23" height="12" rx="1.5" fill="#3E63CC"/><text x="27.5" y="262" font-family="Arial, sans-serif" font-size="10.5" font-weight="400" fill="#FFFFFF" text-anchor="middle" dominant-baseline="central">M2</text><rect x="40" y="256" width="76" height="12" rx="1.5" fill="#3E63CC"/><text x="43" y="262" font-family="Arial, sans-serif" font-size="10.5" font-weight="400" fill="#FFFFFF" text-anchor="start" dominant-baseline="central">MAIN 2</text><g transform="translate(120 256.5)"><rect width="110" height="5" fill="url(#segDimH)"/><g clip-path="url(#cH15L)"><rect width="77" height="5" fill="url(#segGreenH)"/><rect x="78" width="20" height="5" fill="url(#segYellowH)"/><rect x="99" width="11" height="5" fill="url(#segRedH)"/></g></g><g transform="translate(120 262.5)"><rect width="110" height="5" fill="url(#segDimH)"/><g clip-path="url(#cH15R)"><rect width="77" height="5" fill="url(#segGreenH)"/><rect x="78" width="20" height="5" fill="url(#segYellowH)"/><rect x="99" width="11" height="5" fill="url(#segRedH)"/></g></g><rect x="16" y="272" width="23" height="12" rx="1.5" fill="#455a64"/><text x="27.5" y="278" font-family="Arial, sans-serif" font-size="10.5" font-weight="400" fill="#FFFFFF" text-anchor="middle" dominant-baseline="central">D1</text><rect x="40" y="272" width="76" height="12" rx="1.5" fill="#455a64"/><text x="43" y="278" font-family="Arial, sans-serif" font-size="10.5" font-weight="400" fill="#FFFFFF" text-anchor="start" dominant-baseline="central">MIC PC</text><g transform="translate(120 272.5)"><rect width="110" height="5" fill="url(#segDimH)"/><g clip-path="url(#cH16L)"><rect width="77" height="5" fill="url(#segGreenH)"/><rect x="78" width="20" height="5" fill="url(#segYellowH)"/><rect x="99" width="11" height="5" fill="url(#segRedH)"/></g></g><g transform="translate(120 278.5)"><rect width="110" height="5" fill="url(#segDimH)"/><g clip-path="url(#cH16R)"><rect width="77" height="5" fill="url(#segGreenH)"/><rect x="78" width="20" height="5" fill="url(#segYellowH)"/><rect x="99" width="11" height="5" fill="url(#segRedH)"/></g></g><rect x="16" y="288" width="23" height="12" rx="1.5" fill="#455a64"/><text x="27.5" y="294" font-family="Arial, sans-serif" font-size="10.5" font-weight="400" fill="#FFFFFF" text-anchor="middle" dominant-baseline="central">D2</text><rect x="40" y="288" width="76" height="12" rx="1.5" fill="#455a64"/><text x="43" y="294" font-family="Arial, sans-serif" font-size="10.5" font-weight="400" fill="#FFFFFF" text-anchor="start" dominant-baseline="central">GAMING PC</text><g transform="translate(120 288.5)"><rect width="110" height="5" fill="url(#segDimH)"/><g clip-path="url(#cH17L)"><rect width="77" height="5" fill="url(#segGreenH)"/><rect x="78" width="20" height="5" fill="url(#segYellowH)"/><rect x="99" width="11" height="5" fill="url(#segRedH)"/></g></g><g transform="translate(120 294.5)"><rect width="110" height="5" fill="url(#segDimH)"/><g clip-path="url(#cH17R)"><rect width="77" height="5" fill="url(#segGreenH)"/><rect x="78" width="20" height="5" fill="url(#segYellowH)"/><rect x="99" width="11" height="5" fill="url(#segRedH)"/></g></g>
</svg>
