<?xml version="1.0" encoding="UTF-8"?>
<svg xmlns="http://www.w3.org/2000/svg" viewBox="0 0 514 158" width="514" height="158" role="img" aria-label="Wing Browser Meters – vertical layout demo">
<title>Wing Browser Meters – vertical layout demo</title>
<defs><pattern id="segDimV" width="9" height="3" patternUnits="userSpaceOnUse"><rect width="9" height="2" fill="#16181e"/></pattern><pattern id="segGreenV" width="9" height="3" patternUnits="userSpaceOnUse"><rect width="9" height="2" fill="#1ED760"/></pattern><pattern id="segYellowV" width="9" height="3" patternUnits="userSpaceOnUse"><rect width="9" height="2" fill="#E7D600"/></pattern><pattern id="segRedV" width="9" height="3" patternUnits="userSpaceOnUse"><rect width="9" height="2" fill="#f44336"/></pattern><clipPath id="cV0"><rect x="0" y="110" width="9" height="110"><animate attributeName="y" calcMode="linear" dur="6s" begin="0s" repeatCount="indefinite" keyTimes="0;0.05;0.07;0.2;0.22;0.4;0.42;0.55;0.57;0.78;0.8;0.95;1" values="110;110;21;69;15;87;27;63;12;93;30;75;110"/></rect></clipPath><clipPath id="cV1"><rect x="0" y="110" width="9" height="110"><animate attributeName="y" calcMode="linear" dur="6s" begin="-1.37s" repeatCount="indefinite" keyTimes="0;0.05;0.07;0.2;0.22;0.4;0.42;0.55;0.57;0.78;0.8;0.95;1" values="110;110;21;69;15;87;27;63;12;93;30;75;110"/></rect></clipPath><clipPath id="cV2"><rect x="0" y="110" width="9" height="110"><animate attributeName="y" calcMode="linear" dur="6s" begin="-2.74s" repeatCount="indefinite" keyTimes="0;0.05;0.07;0.2;0.22;0.4;0.42;0.55;0.57;0.78;0.8;0.95;1" values="110;110;21;69;15;87;27;63;12;93;30;75;110"/></rect></clipPath><clipPath id="cV3"><rect x="0" y="110" width="9" height="110"><animate attributeName="y" calcMode="linear" dur="6s" begin="-4.11s" repeatCount="indefinite" keyTimes="0;0.05;0.07;0.2;0.22;0.4;0.42;0.55;0.57;0.78;0.8;0.95;1" values="110;110;21;69;15;87;27;63;12;93;30;75;110"/></rect></clipPath><clipPath id="cV4"><rect x="0" y="110" width="9" height="110"><animate attributeName="y" calcMode="linear" dur="6s" begin="-5.48s" repeatCount="indefinite" keyTimes="0;0.05;0.07;0.2;0.22;0.4;0.42;0.55;0.57;0.78;0.8;0.95;1" values="110;110;21;69;15;87;27;63;12;93;30;75;110"/></rect></clipPath><clipPath id="cV5L"><rect x="0" y="110" width="7" height="110"><animate attributeName="y" calcMode="linear" dur="6s" begin="-0.85s" repeatCount="indefinite" keyTimes="0;0.12;0.24;0.36;0.48;0.6;0.72;0.84;0.96;1" values="63;45;57;33;51;39;54;45;57;63"/></rect></clipPath><clipPath id="cV5R"><rect x="0" y="110" width="7" height="110"><animate attributeName="y" calcMode="linear" dur="6s" begin="-1.03s" repeatCount="indefinite" keyTimes="0;0.12;0.24;0.36;0.48;0.6;0.72;0.84;0.96;1" values="63;45;57;33;51;39;54;45;57;63"/></rect></clipPath><clipPath id="cV6L"><rect x="0" y="110" width="7" height="110"><animate attributeName="y" calcMode="linear" dur="6s" begin="-2.22s" repeatCount="indefinite" keyTimes="0;0.12;0.24;0.36;0.48;0.6;0.72;0.84;0.96;1" values="63;45;57;33;51;39;54;45;57;63"/></rect></clipPath><clipPath id="cV6R"><rect x="0" y="110" width="7" height="110"><animate attributeName="y" calcMode="linear" dur="6s" begin="-2.40s" repeatCount="indefinite" keyTimes="0;0.12;0.24;0.36;0.48;0.6;0.72;0.84;0.96;1" values="63;45;57;33;51;39;54;45;57;63"/></rect></clipPath><clipPath id="cV7L"><rect x="0" y="110" width="7" height="110"><animate attributeName="y" calcMode="linear" dur="6s" begin="-3.59s" repeatCount="indefinite" keyTimes="0;0.12;0.24;0.36;0.48;0.6;0.72;0.84;0.96;1" values="63;45;57;33;51;39;54;45;57;63"/></rect></clipPath><clipPath id="cV7R"><rect x="0" y="110" width="7" height="110"><animate attributeName="y" calcMode="linear" dur="6s" begin="-3.77s" repeatCount="indefinite" keyTimes="0;0.12;0.24;0.36;0.48;0.6;0.72;0.84;0.96;1" values="63;45;57;33;51;39;54;45;57;63"/></rect></clipPath><clipPath id="cV8L"><rect x="0" y="110" width="7" height="110"><animate attributeName="y" calcMode="linear" dur="6s" begin="-4.96s" repeatCount="indefinite" keyTimes="0;0.12;0.24;0.36;0.48;0.6;0.72;0.84;0.96;1" values="63;45;57;33;51;39;54;45;57;63"/></rect></clipPath><clipPath id="cV8R"><rect x="0" y="110" width="7" height="110"><animate attributeName="y" calcMode="linear" dur="6s" begin="-5.14s" repeatCount="indefinite" keyTimes="0;0.12;0.24;0.36;0.48;0.6;0.72;0.84;0.96;1" values="63;45;57;33;51;39;54;45;57;63"/></rect></clipPath><clipPath id="cV9L"><rect x="0" y="110" width="7" height="110"><animate attributeName="y" calcMode="linear" dur="6s" begin="-0.33s" repeatCount="indefinite" keyTimes="0;0.12;0.24;0.36;0.48;0.6;0.72;0.84;0.96;1" values="63;45;57;33;51;39;54;45;57;63"/></rect></clipPath><clipPath id="cV9R"><rect x="0" y="110" width="7" height="110"><animate attributeName="y" calcMode="linear" dur="6s" begin="-0.51s" repeatCount="indefinite" keyTimes="0;0.12;0.24;0.36;0.48;0.6;0.72;0.84;0.96;1" values="63;45;57;33;51;39;54;45;57;63"/></rect></clipPath><clipPath id="cV10L"><rect x="0" y="110" width="7" height="110"><animate attributeName="y" calcMode="linear" dur="6s" begin="-1.70s" repeatCount="indefinite" keyTimes="0;0.15;0.3;0.45;0.6;0.75;0.9;1" values="33;21;27;15;27;18;30;33"/></rect></clipPath><clipPath id="cV10R"><rect x="0" y="110" width="7" height="110"><animate attributeName="y" calcMode="linear" dur="6s" begin="-1.88s" repeatCount="indefinite" keyTimes="0;0.15;0.3;0.45;0.6;0.75;0.9;1" values="33;21;27;15;27;18;30;33"/></rect></clipPath><clipPath id="cV11L"><rect x="0" y="110" width="7" height="110"><animate attributeName="y" calcMode="linear" dur="6s" begin="-3.07s" repeatCount="indefinite" keyTimes="0;0.1;0.2;0.3;0.4;0.5;0.6;0.7;0.8;0.9;1" values="45;33;39;27;36;42;30;36;45;33;45"/></rect></clipPath><clipPath id="cV11R"><rect x="0" y="110" width="7" height="110"><animate attributeName="y" calcMode="linear" dur="6s" begin="-3.25s" repeatCount="indefinite" keyTimes="0;0.1;0.2;0.3;0.4;0.5;0.6;0.7;0.8;0.9;1" values="45;33;39;27;36;42;30;36;45;33;45"/></rect></clipPath><clipPath id="cV12"><rect x="0" y="110" width="9" height="110"><animate attributeName="y" calcMode="linear" dur="6s" begin="-4.44s" repeatCount="indefinite" keyTimes="0;0.05;0.07;0.2;0.22;0.4;0.42;0.55;0.57;0.78;0.8;0.95;1" values="110;110;21;69;15;87;27;63;12;93;30;75;110"/></rect></clipPath><clipPath id="cV13"><rect x="0" y="110" width="9" height="110"><animate attributeName="y" calcMode="linear" dur="6s" begin="-5.81s" repeatCount="indefinite" keyTimes="0;0.3;0.32;0.45;0.7;0.72;0.85;1" values="87;87;57;75;75;45;69;87"/></rect></clipPath><clipPath id="cV14L"><rect x="0" y="110" width="7" height="110"><animate attributeName="y" calcMode="linear" dur="6s" begin="-1.18s" repeatCount="indefinite" keyTimes="0;0.08;0.18;0.22;0.32;0.42;0.5;0.58;0.68;0.75;0.85;0.92;1" values="45;21;33;15;30;12;27;18;33;12;27;18;45"/></rect></clipPath><clipPath id="cV14R"><rect x="0" y="110" width="7" height="110"><animate attributeName="y" calcMode="linear" dur="6s" begin="-1.36s" repeatCount="indefinite" keyTimes="0;0.08;0.18;0.22;0.32;0.42;0.5;0.58;0.68;0.75;0.85;0.92;1" values="45;21;33;15;30;12;27;18;33;12;27;18;45"/></rect></clipPath><clipPath id="cV15L"><rect x="0" y="110" width="7" height="110"><animate attributeName="y" calcMode="linear" dur="6s" begin="-2.55s" repeatCount="indefinite" keyTimes="0;0.08;0.18;0.22;0.32;0.42;0.5;0.58;0.68;0.75;0.85;0.92;1" values="45;21;33;15;30;12;27;18;33;12;27;18;45"/></rect></clipPath><clipPath id="cV15R"><rect x="0" y="110" width="7" height="110"><animate attributeName="y" calcMode="linear" dur="6s" begin="-2.73s" repeatCount="indefinite" keyTimes="0;0.08;0.18;0.22;0.32;0.42;0.5;0.58;0.68;0.75;0.85;0.92;1" values="45;21;33;15;30;12;27;18;33;12;27;18;45"/></rect></clipPath><clipPath id="cV16L"><rect x="0" y="110" width="7" height="110"><animate attributeName="y" calcMode="linear" dur="6s" begin="-3.92s" repeatCount="indefinite" keyTimes="0;0.1;0.2;0.3;0.4;0.5;0.6;0.7;0.8;0.9;1" values="39;21;33;15;30;18;33;12;27;21;39"/></rect></clipPath><clipPath id="cV16R"><rect x="0" y="110" width="7" height="110"><animate attributeName="y" calcMode="linear" dur="6s" begin="-4.10s" repeatCount="indefinite" keyTimes="0;0.1;0.2;0.3;0.4;0.5;0.6;0.7;0.8;0.9;1" values="39;21;33;15;30;18;33;12;27;21;39"/></rect></clipPath><clipPath id="cV17L"><rect x="0" y="110" width="7" height="110"><animate attributeName="y" calcMode="linear" dur="6s" begin="-5.29s" repeatCount="indefinite" keyTimes="0;0.15;0.3;0.45;0.6;0.75;0.9;1" values="33;21;27;15;27;18;30;33"/></rect></clipPath><clipPath id="cV17R"><rect x="0" y="110" width="7" height="110"><animate attributeName="y" calcMode="linear" dur="6s" begin="-5.47s" repeatCount="indefinite" keyTimes="0;0.15;0.3;0.45;0.6;0.75;0.9;1" values="33;21;27;15;27;18;30;33"/></rect></clipPath></defs>
<rect width="514" height="158" fill="#272A33"/>
<g transform="translate(23 16)"><rect width="9" height="110" fill="url(#segDimV)"/><g clip-path="url(#cV0)"><rect y="0" width="9" height="11" fill="url(#segRedV)"/><rect y="12" width="9" height="20" fill="url(#segYellowV)"/><rect y="33" width="9" height="77" fill="url(#segGreenV)"/></g></g><rect x="16" y="130" width="23" height="12" rx="1.5" fill="#E02040"/><text x="27.5" y="136" font-family="Arial, sans-serif" font-size="10.5" font-weight="400" fill="#FFFFFF" text-anchor="middle" dominant-baseline="central">1</text><g transform="translate(50 16)"><rect width="9" height="110" fill="url(#segDimV)"/><g clip-path="url(#cV1)"><rect y="0" width="9" height="11" fill="url(#segRedV)"/><rect y="12" width="9" height="20" fill="url(#segYellowV)"/><rect y="33" width="9" height="77" fill="url(#segGreenV)"/></g></g><rect x="43" y="130" width="23" height="12" rx="1.5" fill="#E02040"/><text x="54.5" y="136" font-family="Arial, sans-serif" font-size="10.5" font-weight="400" fill="#FFFFFF" text-anchor="middle" dominant-baseline="central">2</text><g transform="translate(77 16)"><rect width="9" height="110" fill="url(#segDimV)"/><g clip-path="url(#cV2)"><rect y="0" width="9" height="11" fill="url(#segRedV)"/><rect y="12" width="9" height="20" fill="url(#segYellowV)"/><rect y="33" width="9" height="77" fill="url(#segGreenV)"/></g></g><rect x="70" y="130" width="23" height="12" rx="1.5" fill="#E02040"/><text x="81.5" y="136" font-family="Arial, sans-serif" font-size="10.5" font-weight="400" fill="#FFFFFF" text-anchor="middle" dominant-baseline="central">3</text><g transform="translate(104 16)"><rect width="9" height="110" fill="url(#segDimV)"/><g clip-path="url(#cV3)"><rect y="0" width="9" height="11" fill="url(#segRedV)"/><rect y="12" width="9" height="20" fill="url(#segYellowV)"/><rect y="33" width="9" height="77" fill="url(#segGreenV)"/></g></g><rect x="97" y="130" width="23" height="12" rx="1.5" fill="#E02040"/><text x="108.5" y="136" font-family="Arial, sans-serif" font-size="10.5" font-weight="400" fill="#FFFFFF" text-anchor="middle" dominant-baseline="central">4</text><g transform="translate(131 16)"><rect width="9" height="110" fill="url(#segDimV)"/><g clip-path="url(#cV4)"><rect y="0" width="9" height="11" fill="url(#segRedV)"/><rect y="12" width="9" height="20" fill="url(#segYellowV)"/><rect y="33" width="9" height="77" fill="url(#segGreenV)"/></g></g><rect x="124" y="130" width="23" height="12" rx="1.5" fill="#E02040"/><text x="135.5" y="136" font-family="Arial, sans-serif" font-size="10.5" font-weight="400" fill="#FFFFFF" text-anchor="middle" dominant-baseline="central">5</text><g transform="translate(155 16)"><rect width="7" height="110" fill="url(#segDimV)"/><g clip-path="url(#cV5L)"><rect y="0" width="7" height="11" fill="url(#segRedV)"/><rect y="12" width="7" height="20" fill="url(#segYellowV)"/><rect y="33" width="7" height="77" fill="url(#segGreenV)"/></g></g><g transform="translate(163 16)"><rect width="7" height="110" fill="url(#segDimV)"/><g clip-path="url(#cV5R)"><rect y="0" width="7" height="11" fill="url(#segRedV)"/><rect y="12" width="7" height="20" fill="url(#segYellowV)"/><rect y="33" width="7" height="77" fill="url(#segGreenV)"/></g></g><rect x="151" y="130" width="23" height="12" rx="1.5" fill="#25C3FF"/><text x="162.5" y="136" font-family="Arial, sans-serif" font-size="10.5" font-weight="400" fill="#000000" text-anchor="middle" dominant-baseline="central">6</text><g transform="translate(182 16)"><rect width="7" height="110" fill="url(#segDimV)"/><g clip-path="url(#cV6L)"><rect y="0" width="7" height="11" fill="url(#segRedV)"/><rect y="12" width="7" height="20" fill="url(#segYellowV)"/><rect y="33" width="7" height="77" fill="url(#segGreenV)"/></g></g><g transform="translate(190 16)"><rect width="7" height="110" fill="url(#segDimV)"/><g clip-path="url(#cV6R)"><rect y="0" width="7" height="11" fill="url(#segRedV)"/><rect y="12" width="7" height="20" fill="url(#segYellowV)"/><rect y="33" width="7" height="77" fill="url(#segGreenV)"/></g></g><rect x="178" y="130" width="23" height="12" rx="1.5" fill="#25C3FF"/><text x="189.5" y="136" font-family="Arial, sans-serif" font-size="10.5" font-weight="400" fill="#000000" text-anchor="middle" dominant-baseline="central">7</text><g transform="translate(209 16)"><rect width="7" height="110" fill="url(#segDimV)"/><g clip-path="url(#cV7L)"><rect y="0" width="7" height="11" fill="url(#segRedV)"/><rect y="12" width="7" height="20" fill="url(#segYellowV)"/><rect y="33" width="7" height="77" fill="url(#segGreenV)"/></g></g><g transform="translate(217 16)"><rect width="7" height="110" fill="url(#segDimV)"/><g clip-path="url(#cV7R)"><rect y="0" width="7" height="11" fill="url(#segRedV)"/><rect y="12" width="7" height="20" fill="url(#segYellowV)"/><rect y="33" width="7" height="77" fill="url(#segGreenV)"/></g></g><rect x="205" y="130" width="23" height="12" rx="1.5" fill="#25C3FF"/><text x="216.5" y="136" font-family="Arial, sans-serif" font-size="10.5" font-weight="400" fill="#000000" text-anchor="middle" dominant-baseline="central">8</text><g transform="translate(236 16)"><rect width="7" height="110" fill="url(#segDimV)"/><g clip-path="url(#cV8L)"><rect y="0" width="7" height="11" fill="url(#segRedV)"/><rect y="12" width="7" height="20" fill="url(#segYellowV)"/><rect y="33" width="7" height="77" fill="url(#segGreenV)"/></g></g><g transform="translate(244 16)"><rect width="7" height="110" fill="url(#segDimV)"/><g clip-path="url(#cV8R)"><rect y="0" width="7" height="11" fill="url(#segRedV)"/><rect y="12" width="7" height="20" fill="url(#segYellowV)"/><rect y="33" width="7" height="77" fill="url(#segGreenV)"/></g></g><rect x="232" y="130" width="23" height="12" rx="1.5" fill="#25C3FF"/><text x="243.5" y="136" font-family="Arial, sans-serif" font-size="10.5" font-weight="400" fill="#000000" text-anchor="middle" dominant-baseline="central">9</text><g transform="translate(263 16)"><rect width="7" height="110" fill="url(#segDimV)"/><g clip-path="url(#cV9L)"><rect y="0" width="7" height="11" fill="url(#segRedV)"/><rect y="12" width="7" height="20" fill="url(#segYellowV)"/><rect y="33" width="7" height="77" fill="url(#segGreenV)"/></g></g><g transform="translate(271 16)"><rect width="7" height="110" fill="url(#segDimV)"/><g clip-path="url(#cV9R)"><rect y="0" width="7" height="11" fill="url(#segRedV)"/><rect y="12" width="7" height="20" fill="url(#segYellowV)"/><rect y="33" width="7" height="77" fill="url(#segGreenV)"/></g></g><rect x="259" y="130" width="23" height="12" rx="1.5" fill="#25C3FF"/><text x="270.5" y="136" font-family="Arial, sans-serif" font-size="10.5" font-weight="400" fill="#000000" text-anchor="middle" dominant-baseline="central">10</text><g transform="translate(290 16)"><rect width="7" height="110" fill="url(#segDimV)"/><g clip-path="url(#cV10L)"><rect y="0" width="7" height="11" fill="url(#segRedV)"/><rect y="12" width="7" height="20" fill="url(#segYellowV)"/><rect y="33" width="7" height="77" fill="url(#segGreenV)"/></g></g><g transform="translate(298 16)"><rect width="7" height="110" fill="url(#segDimV)"/><g clip-path="url(#cV10R)"><rect y="0" width="7" height="11" fill="url(#segRedV)"/><rect y="12" width="7" height="20" fill="url(#segYellowV)"/><rect y="33" width="7" height="77" fill="url(#segGreenV)"/></g></g><rect x="286" y="130" width="23" height="12" rx="1.5" fill="#96CC00"/><text x="297.5" y="136" font-family="Arial, sans-serif" font-size="10.5" font-weight="400" fill="#000000" text-anchor="middle" dominant-baseline="central">29</text><g transform="translate(317 16)"><rect width="7" height="110" fill="url(#segDimV)"/><g clip-path="url(#cV11L)"><rect y="0" width="7" height="11" fill="url(#segRedV)"/><rect y="12" width="7" height="20" fill="url(#segYellowV)"/><rect y="33" width="7" height="77" fill="url(#segGreenV)"/></g></g><g transform="translate(325 16)"><rect width="7" height="110" fill="url(#segDimV)"/><g clip-path="url(#cV11R)"><rect y="0" width="7" height="11" fill="url(#segRedV)"/><rect y="12" width="7" height="20" fill="url(#segYellowV)"/><rect y="33" width="7" height="77" fill="url(#segGreenV)"/></g></g><rect x="313" y="130" width="23" height="12" rx="1.5" fill="#96CC00"/><text x="324.5" y="136" font-family="Arial, sans-serif" font-size="10.5" font-weight="400" fill="#000000" text-anchor="middle" dominant-baseline="central">30</text><g transform="translate(347 16)"><rect width="9" height="110" fill="url(#segDimV)"/><g clip-path="url(#cV12)"><rect y="0" width="9" height="11" fill="url(#segRedV)"/><rect y="12" width="9" height="20" fill="url(#segYellowV)"/><rect y="33" width="9" height="77" fill="url(#segGreenV)"/></g></g><rect x="340" y="130" width="23" height="12" rx="1.5" fill="#33E6A5"/><text x="351.5" y="136" font-family="Arial, sans-serif" font-size="10.5" font-weight="400" fill="#000000" text-anchor="middle" dominant-baseline="central">31</text><g transform="translate(374 16)"><rect width="9" height="110" fill="url(#segDimV)"/><g clip-path="url(#cV13)"><rect y="0" width="9" height="11" fill="url(#segRedV)"/><rect y="12" width="9" height="20" fill="url(#segYellowV)"/><rect y="33" width="9" height="77" fill="url(#segGreenV)"/></g></g><rect x="367" y="130" width="23" height="12" rx="1.5" fill="#A533FF"/><text x="378.5" y="136" font-family="Arial, sans-serif" font-size="10.5" font-weight="400" fill="#FFFFFF" text-anchor="middle" dominant-baseline="central">32</text><g transform="translate(398 16)"><rect width="7" height="110" fill="url(#segDimV)"/><g clip-path="url(#cV14L)"><rect y="0" width="7" height="11" fill="url(#segRedV)"/><rect y="12" width="7" height="20" fill="url(#segYellowV)"/><rect y="33" width="7" height="77" fill="url(#segGreenV)"/></g></g><g transform="translate(406 16)"><rect width="7" height="110" fill="url(#segDimV)"/><g clip-path="url(#cV14R)"><rect y="0" width="7" height="11" fill="url(#segRedV)"/><rect y="12" width="7" height="20" fill="url(#segYellowV)"/><rect y="33" width="7" height="77" fill="url(#segGreenV)"/></g></g><rect x="394" y="130" width="23" height="12" rx="1.5" fill="#3E63CC"/><text x="405.5" y="136" font-family="Arial, sans-serif" font-size="10.5" font-weight="400" fill="#FFFFFF" text-anchor="middle" dominant-baseline="central">M1</text><g transform="translate(425 16)"><rect width="7" height="110" fill="url(#segDimV)"/><g clip-path="url(#cV15L)"><rect y="0" width="7" height="11" fill="url(#segRedV)"/><rect y="12" width="7" height="20" fill="url(#segYellowV)"/><rect y="33" width="7" height="77" fill="url(#segGreenV)"/></g></g><g transform="translate(433 16)"><rect width="7" height="110" fill="url(#segDimV)"/><g clip-path="url(#cV15R)"><rect y="0" width="7" height="11" fill="url(#segRedV)"/><rect y="12" width="7" height="20" fill="url(#segYellowV)"/><rect y="33" width="7" height="77" fill="url(#segGreenV)"/></g></g><rect x="421" y="130" width="23" height="12" rx="1.5" fill="#3E63CC"/><text x="432.5" y="136" font-family="Arial, sans-serif" font-size="10.5" font-weight="400" fill="#FFFFFF" text-anchor="middle" dominant-baseline="central">M2</text><g transform="translate(452 16)"><rect width="7" height="110" fill="url(#segDimV)"/><g clip-path="url(#cV16L)"><rect y="0" width="7" height="11" fill="url(#segRedV)"/><rect y="12" width="7" height="20" fill="url(#segYellowV)"/><rect y="33" width="7" height="77" fill="url(#segGreenV)"/></g></g><g transform="translate(460 16)"><rect width="7" height="110" fill="url(#segDimV)"/><g clip-path="url(#cV16R)"><rect y="0" width="7" height="11" fill="url(#segRedV)"/><rect y="12" width="7" height="20" fill="url(#segYellowV)"/><rect y="33" width="7" height="77" fill="url(#segGreenV)"/></g></g><rect x="448" y="130" width="23" height="12" rx="1.5" fill="#455a64"/><text x="459.5" y="136" font-family="Arial, sans-serif" font-size="10.5" font-weight="400" fill="#FFFFFF" text-anchor="middle" dominant-baseline="central">D1</text><g transform="translate(479 16)"><rect width="7" height="110" fill="url(#segDimV)"/><g clip-path="url(#cV17L)"><rect y="0" width="7" height="11" fill="url(#segRedV)"/><rect y="12" width="7" height="20" fill="url(#segYellowV)"/><rect y="33" width="7" height="77" fill="url(#segGreenV)"/></g></g><g transform="translate(487 16)"><rect width="7" height="110" fill="url(#segDimV)"/><g clip-path="url(#cV17R)"><rect y="0" width="7" height="11" fill="url(#segRedV)"/><rect y="12" width="7" height="20" fill="url(#segYellowV)"/><rect y="33" width="7" height="77" fill="url(#segGreenV)"/></g></g><rect x="475" y="130" width="23" height="12" rx="1.5" fill="#455a64"/><text x="486.5" y="136" font-family="Arial, sans-serif" font-size="10.5" font-weight="400" fill="#FFFFFF" text-anchor="middle" dominant-baseline="central">D2</text>
</svg>
